<svg id="图层_1" data-name="图层 1" xmlns="http://www.w3.org/2000/svg" viewBox="30 455 1073 220"><defs><style>.cls-1{fill:#000002;}.cls-2{fill:#fff;}</style></defs><title>CelerFlow  SVG</title><path class="cls-2" d="M265.33,476.6H156.91c-85.64,0-82.2,63.73-82.2,63.73,9.62-7.65,21-13.26,31.93-17.33A164,164,0,0,1,164,512.88h72.3c18.57,0,29.07-19.25,33.41-29.71A4.76,4.76,0,0,0,265.33,476.6Z"/><path class="cls-2" d="M239.86,530.53H157.67a149.38,149.38,0,0,0-54.32,10c-25.75,10.05-54.67,29.62-54.67,66.85,0,0,41.88-41.72,105-41.72h51.93a43,43,0,0,0,25.94-8.44c6-4.53,11.53-11.28,13.07-21.13A4.8,4.8,0,0,0,239.86,530.53Z"/><path class="cls-2" d="M201.69,582.5H161.08c-115.22,0-115.22,74.76-115.22,74.76,13.59-15.33,31.05-25.2,47.19-31.54a164.14,164.14,0,0,1,60.06-11.11h20c22.69,0,30.58-16.8,33.2-26.1A4.75,4.75,0,0,0,201.69,582.5Z"/><path class="cls-2" d="M126.63,625.88c-10.71,2.27-35,9.5-61.32,31.38h49a18.08,18.08,0,0,0,18.08-18.07v-8.64A4.78,4.78,0,0,0,126.63,625.88Z"/><path class="cls-2" d="M343.51,595.82s-13.84-6.39-16.84-22.4a32.86,32.86,0,0,1,7.79-27.83c5.53-6.21,14.86-12.4,30.05-12.45a32.2,32.2,0,0,1,9.88,1.57c5.35,1.7,13.37,5.08,17.18,10.84l15.59-17.29S391.67,509.67,356.74,512A62,62,0,0,0,322,525.2a52.2,52.2,0,0,0-16.82,59.19,57,57,0,0,0,33.17,34.33c9.68,3.88,20.31,4.8,30.69,3.74,12-1.23,28.66-5.42,39.21-18.5l-14.87-16S372.34,611,343.51,595.82Z"/><path class="cls-2" d="M457.24,539c-13.83,0-23.62,4.33-30.46,9.76-.66.52-1.32,1.08-1.95,1.65a41.93,41.93,0,0,0-10.56,46.32c6.84,16.78,23.94,24.57,41.2,25.17a58.53,58.53,0,0,0,18.29-2.2,54,54,0,0,0,13.89-6.22c.25-.16,4.87-3.42,4.76-3.55l-13.26-14.57a33.41,33.41,0,0,1-21.54,8.37c-20.37,0-23.51-16.41-23.51-16.41h63.56v-6.51C497.66,538.3,457.24,539,457.24,539Zm-23.68,32.72s2.35-15.14,21.37-15.14,21.37,15.14,21.37,15.14Z"/><path class="cls-2" d="M593.89,539c-13.83,0-23.62,4.33-30.46,9.76-.67.52-1.32,1.08-2,1.65a42,42,0,0,0-10.56,46.32c6.84,16.78,24,24.57,41.2,25.17a58.63,58.63,0,0,0,18.3-2.2,53.94,53.94,0,0,0,13.88-6.22c.25-.16,4.87-3.42,4.76-3.55l-13.26-14.57a33.41,33.41,0,0,1-21.54,8.37c-20.36,0-23.51-16.41-23.51-16.41h63.57v-6.51C634.31,538.3,593.89,539,593.89,539ZM570.2,571.68s2.35-15.14,21.37-15.14,21.37,15.14,21.37,15.14Z"/><rect class="cls-2" x="511.86" y="510.99" width="23.04" height="111.6"/><rect class="cls-2" x="815.14" y="510.99" width="23.04" height="111.6"/><path class="cls-2" d="M670.34,553.7V541.49H646.9v80.42h23.44V577.16c9.69-25.47,36.37-14.49,36.37-14.49V540.56C687.19,536.41,675.76,546.56,670.34,553.7Z"/><polygon class="cls-2" points="721.98 512.73 721.98 533.3 721.98 559.86 721.98 580.43 721.98 621.9 745.89 621.9 745.89 580.43 797.61 580.43 797.61 559.86 745.89 559.86 745.89 533.3 802.96 533.3 802.96 512.73 745.89 512.73 721.98 512.73"/><path class="cls-2" d="M897.1,539.46c-25.35,0-45.91,18.61-45.91,41.59s20.56,41.58,45.91,41.58S943,604,943,581.05,922.46,539.46,897.1,539.46Zm-.16,63.45c-12.69,0-23-9.79-23-21.86s10.29-21.87,23-21.87,23,9.79,23,21.87S909.62,602.91,896.94,602.91Z"/><polygon class="cls-2" points="1062.98 541.49 1044.9 592.11 1024.6 541.49 1006.02 541.49 985.72 592.11 966.83 541.49 941.91 541.49 974.57 621.75 994.96 621.75 1014.96 572.21 1035.15 621.75 1056.05 621.75 1088 541.49 1062.98 541.49"/></svg>